<svg width="24" height="24" viewBox="0 0 24 24" fill="none" xmlns="http://www.w3.org/2000/svg" role="img" aria-label="Recording">
  <rect x="2" y="2" width="20" height="20" rx="6" fill="#0F172A"/>
  <path d="M12 6.25C10.9 6.25 10 7.15 10 8.25V12.1C10 13.2 10.9 14.1 12 14.1C13.1 14.1 14 13.2 14 12.1V8.25C14 7.15 13.1 6.25 12 6.25Z" fill="#EAF3FF"/>
  <path d="M7.55 11.05C7.55 13.5 9.54 15.5 12 15.5C14.46 15.5 16.45 13.5 16.45 11.05" stroke="#56C7FF" stroke-width="1.45" stroke-linecap="round"/>
  <path d="M12 15.5V18.15" stroke="#56C7FF" stroke-width="1.45" stroke-linecap="round"/>
  <path d="M9.25 18.15H14.75" stroke="#56C7FF" stroke-width="1.45" stroke-linecap="round"/>
  <path d="M6.35 9.4V12.7" stroke="#8EA7FF" stroke-width="1.25" stroke-linecap="round"/>
  <path d="M17.65 9.4V12.7" stroke="#8EA7FF" stroke-width="1.25" stroke-linecap="round"/>
</svg>
